<svg width="73.000000" height="54.000000" viewBox="0 0 73 54" fill="none" xmlns="http://www.w3.org/2000/svg" xmlns:xlink="http://www.w3.org/1999/xlink">
	<desc>
			Created with Pixso.
	</desc>
	<defs/>
	<path id="Vector" d="M68.13 24.2L68.13 11.85C68.12 8.7 66.91 5.69 64.75 3.47C62.59 1.25 59.66 0 56.6 0L16.34 0C13.29 0 10.36 1.25 8.2 3.47C6.04 5.69 4.82 8.71 4.82 11.85L4.82 24.22C3.38 24.91 2.17 25.99 1.31 27.36C0.46 28.73 0 30.32 0 31.95L0 45.96C0 46.95 0.38 47.91 1.06 48.61C1.75 49.31 2.67 49.71 3.64 49.71L7.87 49.71L7.87 52.09C7.87 53.14 8.7 54 9.73 54C10.75 54 11.58 53.14 11.58 52.09L11.58 49.71L61.41 49.71L61.41 52.09C61.41 53.14 62.24 54 63.27 54C64.29 54 65.12 53.14 65.12 52.09L65.12 49.71L69.35 49.71C70.32 49.7 71.24 49.31 71.93 48.61C72.61 47.91 72.99 46.95 73 45.96L73 31.95C72.99 30.31 72.53 28.71 71.67 27.34C70.81 25.96 69.58 24.87 68.13 24.2ZM8.53 11.85C8.53 9.72 9.36 7.68 10.82 6.17C12.29 4.66 14.27 3.82 16.34 3.81L56.6 3.81C58.67 3.81 60.66 4.66 62.12 6.17C63.59 7.67 64.41 9.72 64.42 11.85L64.42 23.4L58.46 23.4L58.46 18.06C58.46 16.3 57.78 14.62 56.57 13.38C55.36 12.13 53.72 11.43 52.01 11.43L44.74 11.43C43.03 11.43 41.39 12.13 40.18 13.38C38.97 14.62 38.29 16.3 38.29 18.06L38.29 23.4L34.68 23.4L34.68 18.06C34.68 16.3 34 14.62 32.79 13.38C31.58 12.13 29.94 11.43 28.23 11.43L20.95 11.43C19.25 11.44 17.61 12.14 16.4 13.38C15.2 14.62 14.52 16.31 14.52 18.06L14.52 23.4L8.53 23.4L8.53 11.85ZM54.76 23.4L42 23.4L42 18.06C42 17.32 42.29 16.6 42.8 16.07C43.31 15.55 44.01 15.25 44.74 15.25L52.01 15.25C52.74 15.25 53.43 15.55 53.95 16.07C54.46 16.6 54.75 17.32 54.75 18.06L54.76 23.4ZM30.98 23.4L18.22 23.4L18.22 18.06C18.22 17.32 18.51 16.61 19.02 16.08C19.53 15.55 20.22 15.25 20.94 15.25L28.22 15.25C28.95 15.25 29.64 15.55 30.15 16.07C30.67 16.6 30.96 17.32 30.96 18.06L30.98 23.4ZM63.3 45.9L63.23 45.9L10.03 45.95C9.93 45.92 9.83 45.9 9.73 45.89C9.63 45.9 9.52 45.92 9.42 45.95L3.71 45.95L3.71 31.95C3.71 30.7 4.19 29.49 5.06 28.61C5.92 27.72 7.09 27.22 8.31 27.22L64.68 27.22C65.9 27.22 67.07 27.72 67.93 28.61C68.8 29.49 69.28 30.7 69.28 31.95L69.35 45.89L63.3 45.9Z" fill="#757575" fill-opacity="1.000000" fill-rule="nonzero"/>
</svg>
