<svg width="46.000000" height="74.000000" viewBox="0 0 46 74" fill="none" xmlns="http://www.w3.org/2000/svg" xmlns:xlink="http://www.w3.org/1999/xlink">
	<desc>
			Created with Pixso.
	</desc>
	<defs/>
	<path id="Vector" d="M44.79 71.27L38.48 71.27L38.48 69.1C38.48 66.5 36.37 64.38 33.76 64.38L32.33 64.38C32.59 63.85 32.73 63.28 32.73 62.66C32.73 60.7 31.34 59.08 29.5 58.71L32.13 44.31C32.62 41.58 31.88 38.8 30.11 36.69C29.25 35.65 28.18 34.83 27 34.26L27 29.14C27.34 28.91 27.71 28.76 28.3 28.76C29.19 28.76 29.6 29.1 30.21 29.63C30.94 30.26 31.86 31.06 33.62 31.06C35.38 31.06 36.29 30.26 37.02 29.63C37.62 29.08 38.02 28.73 38.92 28.73C39.82 28.73 40.22 29.08 40.83 29.61C41.56 30.24 42.47 31.03 44.23 31.03C44.86 31.03 45.38 30.51 45.38 29.88C45.38 29.78 45.34 29.69 45.32 29.59C45.32 29.57 45.33 29.55 45.33 29.54L36.94 3.33C36.31 1.33 34.47 0 32.39 0L13.54 0C11.45 0 9.62 1.33 8.98 3.32L0.59 29.53C0.58 29.57 0.58 29.62 0.58 29.66C0.57 29.73 0.54 29.8 0.54 29.87C0.54 30.5 1.04 31.01 1.67 31.02L1.68 31.02C3.44 31.02 4.35 30.23 5.09 29.59C5.71 29.08 6.11 28.73 7.02 28.73C7.92 28.73 8.32 29.08 8.93 29.61C9.66 30.24 10.58 31.03 12.34 31.03C14.1 31.03 15.01 30.24 15.74 29.61C16.35 29.08 16.76 28.73 17.66 28.73C18.24 28.73 18.61 28.88 18.94 29.1L18.94 34.24C17.76 34.8 16.69 35.63 15.82 36.66C14.05 38.79 13.32 41.57 13.81 44.29L16.43 58.69C14.59 59.06 13.2 60.69 13.2 62.63C13.2 63.25 13.35 63.83 13.61 64.36L12.18 64.36C9.57 64.36 7.46 66.47 7.46 69.08L7.46 71.27L1.14 71.27C0.51 71.27 0 71.78 0 72.42C0 73.05 0.51 73.57 1.14 73.57L44.8 73.57C45.44 73.57 45.95 73.05 45.95 72.42C45.95 71.78 45.42 71.27 44.79 71.27L44.79 71.27ZM14.25 27.87C13.64 28.39 13.24 28.73 12.34 28.73C11.43 28.73 11.03 28.39 10.42 27.86C9.69 27.23 8.78 26.43 7.02 26.43C5.26 26.43 4.34 27.23 3.6 27.86C3.58 27.88 3.56 27.91 3.52 27.93L11.18 4.02C11.5 3 12.46 2.3 13.54 2.3L32.39 2.3C33.47 2.3 34.42 2.98 34.76 4.02L42.41 27.93C42.39 27.91 42.37 27.89 42.33 27.87C41.6 27.23 40.68 26.43 38.92 26.43C37.16 26.43 36.25 27.23 35.52 27.86C34.91 28.39 34.5 28.73 33.61 28.73C32.7 28.73 32.3 28.39 31.69 27.86C30.95 27.23 30.04 26.43 28.28 26.43C26.77 26.43 25.86 27.03 25.09 27.68L24.87 27.87C24.26 28.39 23.87 28.73 22.97 28.73C22.07 28.73 21.68 28.39 21.07 27.86L20.84 27.66C20.08 27.02 19.18 26.43 17.66 26.43C15.9 26.43 14.98 27.23 14.25 27.87L14.25 27.87ZM21.24 30.71C21.71 30.91 22.27 31.03 22.97 31.03C23.66 31.03 24.22 30.91 24.69 30.72L24.69 33.5C24.12 33.4 23.55 33.33 22.96 33.33C22.38 33.33 21.8 33.4 21.24 33.5L21.24 30.71ZM17.58 38.15C18.92 36.55 20.88 35.63 22.96 35.63C25.04 35.63 27.01 36.55 28.34 38.15C29.68 39.75 30.23 41.84 29.86 43.9L27.18 58.62L18.76 58.62L16.07 43.9C15.7 41.84 16.25 39.75 17.58 38.15L17.58 38.15ZM15.49 62.64C15.49 61.69 16.26 60.92 17.22 60.92L28.71 60.92C29.67 60.92 30.44 61.69 30.44 62.64C30.44 63.6 29.66 64.37 28.71 64.37L17.22 64.37C16.26 64.37 15.49 63.6 15.49 62.64ZM9.74 69.09C9.74 67.76 10.84 66.67 12.17 66.67L33.76 66.67C35.09 66.67 36.18 67.76 36.18 69.09L36.18 71.27L9.74 71.27L9.74 69.09Z" fill="#757575" fill-opacity="1.000000" fill-rule="nonzero"/>
</svg>
