<svg width="59.000000" height="75.000000" viewBox="0 0 59 75" fill="none" xmlns="http://www.w3.org/2000/svg" xmlns:xlink="http://www.w3.org/1999/xlink">
	<desc>
			Created with Pixso.
	</desc>
	<defs/>
	<path id="Vector" d="M54.87 43.37L3.84 43.37C3.13 43.37 2.56 42.8 2.56 42.1L2.56 34.44C2.56 33.74 3.13 33.17 3.84 33.17L54.87 33.17C55.21 33.17 55.54 33.3 55.78 33.54C56.02 33.78 56.15 34.1 56.15 34.44L56.15 42.1C56.15 42.44 56.02 42.76 55.78 43C55.54 43.24 55.21 43.37 54.87 43.37ZM5.12 40.82L53.6 40.82L53.6 35.72L5.12 35.72L5.12 40.82Z" fill="#757575" fill-opacity="1.000000" fill-rule="nonzero"/>
	<path id="Vector" d="M8.94 73.99L1.29 73.99C0.91 74 0.55 73.84 0.3 73.55C0.06 73.27 -0.05 72.89 0.01 72.52L5.11 41.89C5.22 41.27 5.76 40.81 6.39 40.82L14.05 40.82C14.42 40.82 14.78 40.98 15.03 41.27C15.28 41.55 15.38 41.93 15.32 42.3L10.22 72.92C10.12 73.55 9.57 74 8.94 73.99ZM2.79 71.44L7.9 71.44L12.58 43.37L7.48 43.37L2.79 71.44Z" fill="#757575" fill-opacity="1.000000" fill-rule="nonzero"/>
	<path id="Vector" d="M21.7 35.72L16.6 35.72C15.89 35.72 15.32 35.15 15.32 34.44L15.32 14.03C15.32 13.32 15.89 12.75 16.6 12.75L21.7 12.75C22.04 12.75 22.36 12.89 22.6 13.13C22.84 13.37 22.98 13.69 22.98 14.03L22.98 34.44C22.98 34.78 22.84 35.11 22.6 35.35C22.36 35.58 22.04 35.72 21.7 35.72ZM17.87 33.17L20.43 33.17L20.43 15.31L17.87 15.31L17.87 33.17Z" fill="#757575" fill-opacity="1.000000" fill-rule="nonzero"/>
	<path id="Vector" d="M42.12 35.72L37.01 35.72C36.31 35.72 35.74 35.15 35.74 34.44L35.74 14.03C35.74 13.32 36.31 12.75 37.01 12.75L42.12 12.75C42.45 12.75 42.78 12.89 43.02 13.13C43.26 13.37 43.39 13.69 43.39 14.03L43.39 34.44C43.39 34.78 43.26 35.11 43.02 35.35C42.78 35.58 42.45 35.72 42.12 35.72ZM38.29 33.17L40.84 33.17L40.84 15.31L38.29 15.31L38.29 33.17Z" fill="#757575" fill-opacity="1.000000" fill-rule="nonzero"/>
	<path id="Vector" d="M57.43 73.99L49.77 73.99C49.14 74 48.6 73.55 48.49 72.92L43.39 42.3C43.33 41.93 43.44 41.55 43.68 41.27C43.93 40.98 44.29 40.82 44.67 40.82L52.32 40.82C52.95 40.81 53.5 41.27 53.6 41.89L58.7 72.52C58.76 72.89 58.65 73.27 58.41 73.55C58.16 73.84 57.8 74 57.43 73.99ZM50.85 71.44L55.96 71.44L51.24 43.37L46.13 43.37L50.85 71.44Z" fill="#757575" fill-opacity="1.000000" fill-rule="nonzero"/>
	<path id="Vector" d="M47.22 15.31L11.49 15.31C10.48 15.31 9.51 14.9 8.79 14.18C8.07 13.47 7.67 12.49 7.67 11.48L7.67 3.82C7.67 2.81 8.07 1.83 8.79 1.12C9.51 0.4 10.48 0 11.49 0L47.22 0C48.23 0 49.21 0.4 49.92 1.12C50.64 1.83 51.05 2.81 51.05 3.82L51.05 11.48C51.05 12.49 50.64 13.47 49.92 14.18C49.21 14.9 48.23 15.31 47.22 15.31ZM11.49 2.55C10.79 2.55 10.22 3.12 10.22 3.82L10.22 11.48C10.22 11.82 10.35 12.14 10.59 12.38C10.83 12.62 11.16 12.75 11.49 12.75L47.22 12.75C47.56 12.75 47.88 12.62 48.12 12.38C48.36 12.14 48.49 11.82 48.49 11.48L48.49 3.82C48.49 3.48 48.36 3.16 48.12 2.92C47.88 2.68 47.56 2.55 47.22 2.55L11.49 2.55Z" fill="#757575" fill-opacity="1.000000" fill-rule="nonzero"/>
</svg>
