<svg width="66.000000" height="76.000000" viewBox="0 0 66 76" fill="none" xmlns="http://www.w3.org/2000/svg" xmlns:xlink="http://www.w3.org/1999/xlink">
	<desc>
			Created with Pixso.
	</desc>
	<defs/>
	<path id="Vector" d="M65.99 45.36C65.99 44.27 65.56 43.22 64.79 42.45C64.01 41.67 62.96 41.24 61.87 41.24L30.64 41.24L30.64 33.98C36.17 31.32 40.07 25.01 40.07 17.67C40.07 7.92 33.2 0 24.75 0C16.3 0 9.43 7.93 9.43 17.67C9.28 23.97 12.4 29.89 17.68 33.33L17.68 41.24L4.13 41.24C2.87 41.23 1.68 41.8 0.89 42.79C0.11 43.77 -0.18 45.06 0.1 46.29C0.39 47.51 1.22 48.54 2.36 49.07L2.36 71.88C2.36 73.14 3.04 74.3 4.13 74.94C5.22 75.57 6.57 75.57 7.66 74.94C8.76 74.3 9.43 73.14 9.43 71.88L9.43 49.49L40.07 49.49L40.07 71.88C40.07 72.81 40.44 73.71 41.11 74.37C41.77 75.04 42.67 75.41 43.61 75.41L60.1 75.41C61.04 75.41 61.94 75.04 62.6 74.37C63.27 73.71 63.64 72.81 63.64 71.88L63.64 49.07C64.34 48.74 64.94 48.21 65.35 47.56C65.77 46.9 65.99 46.14 66 45.36L65.99 45.36ZM11.79 17.67C11.79 9.22 17.6 2.35 24.75 2.35C31.9 2.35 37.71 9.22 37.71 17.67C37.71 26.12 31.9 32.99 24.75 32.99C17.6 32.99 11.79 26.12 11.79 17.67ZM20.04 34.49C21.54 35.05 23.14 35.35 24.75 35.35C25.95 35.34 27.14 35.18 28.29 34.85L28.29 41.24L20.04 41.24L20.04 34.49ZM7.08 71.88C7.08 72.53 6.55 73.06 5.9 73.06C5.25 73.06 4.72 72.53 4.72 71.88L4.72 49.49L7.08 49.49L7.08 71.88ZM50.68 49.49L50.68 50.67C50.68 51.32 51.2 51.85 51.85 51.85C52.5 51.85 53.03 51.32 53.03 50.67L53.03 49.49L61.28 49.49L61.28 54.44L52.53 54.44C52.13 54.12 51.57 54.12 51.18 54.44L42.43 54.44L42.43 49.49L50.68 49.49ZM42.43 61.27L42.43 56.79L50.68 56.79L50.68 57.74C50.68 58.39 51.2 58.92 51.85 58.92C52.5 58.92 53.03 58.39 53.03 57.74L53.03 56.79L61.28 56.79L61.28 61.27L42.43 61.27ZM60.1 73.06L43.6 73.06C42.95 73.06 42.43 72.53 42.43 71.88L42.43 63.63L50.67 63.63L50.67 64.81C50.67 65.46 51.2 65.99 51.85 65.99C52.5 65.99 53.03 65.46 53.03 64.81L53.03 63.63L61.28 63.63L61.28 71.88C61.28 72.19 61.16 72.49 60.93 72.71C60.71 72.93 60.41 73.06 60.1 73.06ZM61.87 47.13L4.13 47.13C3.15 47.13 2.36 46.34 2.36 45.36C2.36 44.39 3.15 43.6 4.13 43.6L61.87 43.6C62.85 43.6 63.64 44.39 63.64 45.36C63.64 46.34 62.85 47.13 61.87 47.13Z" fill="#4F4E4E" fill-opacity="1.000000" fill-rule="nonzero"/>
</svg>
