<svg width="73.000000" height="69.000000" viewBox="0 0 73 69" fill="none" xmlns="http://www.w3.org/2000/svg" xmlns:xlink="http://www.w3.org/1999/xlink">
	<desc>
			Created with Pixso.
	</desc>
	<defs/>
	<path id="Vector" d="M63.47 20.62L63.47 12C63.46 8.82 62.2 5.77 59.95 3.52C57.7 1.27 54.64 0 51.46 0L20.58 0C17.4 0 14.34 1.27 12.09 3.52C9.84 5.77 8.58 8.82 8.57 12L8.57 20.62C6.08 20.85 3.77 22.06 2.17 23.99C0.57 25.92 -0.2 28.41 0.04 30.9C0.27 33.4 1.49 35.7 3.43 37.29L3.43 53.18C3.43 54.84 3.92 56.47 4.83 57.87C5.74 59.26 7.04 60.36 8.57 61.03L8.57 65.18C8.57 66.09 8.94 66.97 9.58 67.61C10.22 68.25 11.09 68.61 12 68.61L15.43 68.61C16.34 68.61 17.22 68.25 17.86 67.61C18.5 66.97 18.86 66.09 18.87 65.18L18.87 61.75L53.17 61.75L53.17 65.18C53.18 66.09 53.54 66.97 54.18 67.61C54.82 68.25 55.7 68.61 56.61 68.61L60.04 68.61C60.95 68.61 61.82 68.25 62.46 67.61C63.1 66.97 63.47 66.09 63.47 65.18L63.47 61.03C65 60.36 66.3 59.26 67.21 57.87C68.12 56.47 68.61 54.84 68.61 53.18L68.61 37.29C70.55 35.7 71.77 33.4 72 30.9C72.24 28.41 71.47 25.92 69.87 23.99C68.27 22.06 65.96 20.85 63.47 20.62L63.47 20.62ZM20.58 3.43L51.46 3.43C53.73 3.43 55.91 4.33 57.52 5.94C59.13 7.55 60.03 9.73 60.04 12L60.04 20.95C58.06 21.51 56.33 22.7 55.09 24.33C53.85 25.97 53.18 27.97 53.18 30.02L53.18 40.84C47.5 39.94 41.77 39.47 36.02 39.45C30.27 39.47 24.54 39.94 18.87 40.84L18.87 30.02C18.86 27.97 18.19 25.97 16.95 24.33C15.71 22.7 13.98 21.51 12 20.95L12 12C12.01 9.73 12.91 7.55 14.52 5.94C16.13 4.33 18.31 3.43 20.58 3.43ZM15.43 65.18L12 65.18L12 61.75L15.43 61.75L15.43 65.18ZM60.04 65.18L56.61 65.18L56.61 61.75L60.04 61.75L60.04 65.18ZM65.94 35.01C65.47 35.33 65.18 35.86 65.18 36.43L65.18 53.18C65.18 54.54 64.64 55.85 63.67 56.81C62.71 57.78 61.4 58.32 60.04 58.32L12 58.32C10.64 58.32 9.33 57.78 8.37 56.81C7.4 55.85 6.86 54.54 6.86 53.18L6.86 36.43C6.86 35.86 6.57 35.33 6.1 35.01C4.34 33.84 3.33 31.83 3.43 29.72C3.54 27.61 4.74 25.71 6.6 24.72C8.46 23.73 10.71 23.78 12.52 24.87C14.33 25.95 15.43 27.91 15.43 30.02L15.43 42.88C15.43 43.4 15.67 43.88 16.06 44.21C16.46 44.53 16.98 44.66 17.49 44.56C23.6 43.47 29.81 42.9 36.02 42.88C42.24 42.9 48.44 43.47 54.55 44.56C55.06 44.66 55.58 44.53 55.98 44.21C56.38 43.88 56.61 43.4 56.61 42.88L56.61 30.02C56.61 27.91 57.71 25.95 59.52 24.86C61.33 23.78 63.58 23.72 65.44 24.72C67.3 25.71 68.51 27.61 68.61 29.72C68.71 31.83 67.7 33.84 65.94 35.01L65.94 35.01Z" fill="#757575" fill-opacity="1.000000" fill-rule="nonzero"/>
</svg>
