<svg width="52.000000" height="66.000000" viewBox="0 0 52 66" fill="none" xmlns="http://www.w3.org/2000/svg" xmlns:xlink="http://www.w3.org/1999/xlink">
	<desc>
			Created with Pixso.
	</desc>
	<defs/>
	<path id="Vector" d="M5.1 0C5.05 0.01 5.01 0.02 4.96 0.02L1.56 0.02L1.42 0.02C0.64 0.06 -0.04 0.8 0 1.58C0.03 2.36 0.78 3.03 1.56 2.99L3.78 2.99L3.78 63.86C3.77 64.64 4.48 65.36 5.26 65.36C6.05 65.36 6.76 64.64 6.75 63.86L6.75 62.37L45.3 62.37L45.3 63.86C45.29 64.64 46 65.36 46.78 65.36C47.57 65.36 48.28 64.64 48.27 63.86L48.27 2.99L50.49 2.99C51.27 3.01 52 2.29 52 1.51C52 0.72 51.27 0.01 50.49 0.02L47.06 0.02C46.92 0 46.77 -0.01 46.62 0C46.57 0.01 46.53 0.02 46.48 0.02L5.54 0.02C5.4 0 5.25 -0.01 5.1 0L5.1 0ZM6.75 2.99L45.3 2.99L45.3 5.96L6.75 5.96L6.75 2.99ZM6.75 8.93L45.3 8.93L45.3 23.78L6.75 23.78L6.75 8.93ZM6.75 26.75L45.3 26.75L45.3 41.59L6.75 41.59L6.75 26.75ZM23.66 29.71C22.88 29.75 22.2 30.49 22.24 31.27C22.27 32.05 23.02 32.72 23.8 32.68L28.25 32.68C29.03 32.7 29.75 31.98 29.75 31.2C29.75 30.41 29.03 29.7 28.25 29.71L23.8 29.71L23.66 29.71L23.66 29.71ZM6.75 44.56L45.3 44.56L45.3 59.4L6.75 59.4L6.75 44.56ZM23.66 47.53C22.88 47.57 22.21 48.31 22.25 49.08C22.28 49.86 23.02 50.53 23.8 50.5L28.25 50.5C29.03 50.51 29.75 49.8 29.75 49.01C29.75 48.23 29.03 47.52 28.25 47.53L23.8 47.53L23.66 47.53L23.66 47.53Z" fill="#757575" fill-opacity="1.000000" fill-rule="nonzero"/>
</svg>
